REM DIRINDEX 1\2,1\4,1\5,1\6,1\7,1\3\8,1\3\9,1\3\10
REM DIRNAME folder01,folder02,folder03,folder04,folder05,folder06,folder07,folder08,folder09,folder10
TITLE ""
FILE "DB4500_5th_1A_19.mp3" MP3
  TRACK 01 AUDIO
    TITLE "8:cjc113_0743"
    INDEX 01 00:00:00
  TRACK 02 AUDIO
    TITLE "0:"
    INDEX 01 00:01:21
  TRACK 03 AUDIO
    TITLE "9:cjc113_0744"
    INDEX 01 00:01:38
  TRACK 04 AUDIO
    TITLE "0:"
    INDEX 01 00:02:63
  TRACK 05 AUDIO
    TITLE "10:cjc113_0745"
    INDEX 01 00:03:12
  TRACK 06 AUDIO
    TITLE "0:"
    INDEX 01 00:06:55
  TRACK 07 AUDIO
    TITLE "8:cjc113_0746"
    INDEX 01 00:07:29
  TRACK 08 AUDIO
    TITLE "0:"
    INDEX 01 00:08:52
  TRACK 09 AUDIO
    TITLE "9:cjc113_0747"
    INDEX 01 00:08:72
  TRACK 10 AUDIO
    TITLE "0:"
    INDEX 01 00:10:43
  TRACK 11 AUDIO
    TITLE "10:cjc113_0748"
    INDEX 01 00:10:59
  TRACK 12 AUDIO
    TITLE "0:"
    INDEX 01 00:14:62
  TRACK 13 AUDIO
    TITLE "8:cjc113_0749"
    INDEX 01 00:15:30
  TRACK 14 AUDIO
    TITLE "0:"
    INDEX 01 00:16:42
  TRACK 15 AUDIO
    TITLE "9:cjc113_0750"
    INDEX 01 00:16:63
  TRACK 16 AUDIO
    TITLE "0:"
    INDEX 01 00:17:63
  TRACK 17 AUDIO
    TITLE "10:cjc113_0751"
    INDEX 01 00:18:13
  TRACK 18 AUDIO
    TITLE "0:"
    INDEX 01 00:21:23
  TRACK 19 AUDIO
    TITLE "8:cjc113_0752"
    INDEX 01 00:21:68
  TRACK 20 AUDIO
    TITLE "0:"
    INDEX 01 00:23:06
  TRACK 21 AUDIO
    TITLE "9:cjc113_0753"
    INDEX 01 00:23:30
  TRACK 22 AUDIO
    TITLE "0:"
    INDEX 01 00:24:43
  TRACK 23 AUDIO
    TITLE "10:cjc113_0754"
    INDEX 01 00:24:65
  TRACK 24 AUDIO
    TITLE "0:"
    INDEX 01 00:27:63
  TRACK 25 AUDIO
    TITLE "8:cjc113_0755"
    INDEX 01 00:28:35
  TRACK 26 AUDIO
    TITLE "0:"
    INDEX 01 00:29:52
  TRACK 27 AUDIO
    TITLE "9:cjc113_0756"
    INDEX 01 00:29:74
  TRACK 28 AUDIO
    TITLE "0:"
    INDEX 01 00:30:67
  TRACK 29 AUDIO
    TITLE "10:cjc113_0757"
    INDEX 01 00:31:14
  TRACK 30 AUDIO
    TITLE "0:"
    INDEX 01 00:34:55
  TRACK 31 AUDIO
    TITLE "8:cjc113_0758"
    INDEX 01 00:35:25
  TRACK 32 AUDIO
    TITLE "0:"
    INDEX 01 00:36:42
  TRACK 33 AUDIO
    TITLE "9:cjc113_0759"
    INDEX 01 00:36:60
  TRACK 34 AUDIO
    TITLE "0:"
    INDEX 01 00:38:10
  TRACK 35 AUDIO
    TITLE "10:cjc113_0760"
    INDEX 01 00:38:30
  TRACK 36 AUDIO
    TITLE "0:"
    INDEX 01 00:41:47
  TRACK 37 AUDIO
    TITLE "8:cjc113_0761"
    INDEX 01 00:42:19
  TRACK 38 AUDIO
    TITLE "0:"
    INDEX 01 00:43:39
  TRACK 39 AUDIO
    TITLE "9:cjc113_0762"
    INDEX 01 00:43:62
  TRACK 40 AUDIO
    TITLE "0:"
    INDEX 01 00:46:19
  TRACK 41 AUDIO
    TITLE "10:cjc113_0763"
    INDEX 01 00:46:41
  TRACK 42 AUDIO
    TITLE "0:"
    INDEX 01 00:50:09
  TRACK 43 AUDIO
    TITLE "8:cjc113_0764"
    INDEX 01 00:50:56
  TRACK 44 AUDIO
    TITLE "0:"
    INDEX 01 00:51:69
  TRACK 45 AUDIO
    TITLE "9:cjc113_0765"
    INDEX 01 00:52:16
  TRACK 46 AUDIO
    TITLE "0:"
    INDEX 01 00:55:06
  TRACK 47 AUDIO
    TITLE "10:cjc113_0766"
    INDEX 01 00:55:30
  TRACK 48 AUDIO
    TITLE "0:"
    INDEX 01 00:59:18
  TRACK 49 AUDIO
    TITLE "8:cjc113_0767"
    INDEX 01 00:59:63
  TRACK 50 AUDIO
    TITLE "0:"
    INDEX 01 01:00:70
  TRACK 51 AUDIO
    TITLE "9:cjc113_0768"
    INDEX 01 01:01:19
  TRACK 52 AUDIO
    TITLE "0:"
    INDEX 01 01:03:22
  TRACK 53 AUDIO
    TITLE "10:cjc113_0769"
    INDEX 01 01:03:47
  TRACK 54 AUDIO
    TITLE "0:"
    INDEX 01 01:06:42
  TRACK 55 AUDIO
    TITLE "10:cjc113_0770"
    INDEX 01 01:06:71
  TRACK 56 AUDIO
    TITLE "0:"
    INDEX 01 01:10:22
  TRACK 57 AUDIO
    TITLE "8:cjc113_0771"
    INDEX 01 01:10:69
  TRACK 58 AUDIO
    TITLE "0:"
    INDEX 01 01:11:68
  TRACK 59 AUDIO
    TITLE "9:cjc113_0772"
    INDEX 01 01:12:17
  TRACK 60 AUDIO
    TITLE "0:"
    INDEX 01 01:14:43
  TRACK 61 AUDIO
    TITLE "10:cjc113_0773"
    INDEX 01 01:14:66
  TRACK 62 AUDIO
    TITLE "0:"
    INDEX 01 01:18:27
  TRACK 63 AUDIO
    TITLE "8:cjc113_0774"
    INDEX 01 01:18:74
  TRACK 64 AUDIO
    TITLE "0:"
    INDEX 01 01:20:22
  TRACK 65 AUDIO
    TITLE "9:cjc113_0775"
    INDEX 01 01:20:44
  TRACK 66 AUDIO
    TITLE "0:"
    INDEX 01 01:23:01
  TRACK 67 AUDIO
    TITLE "10:cjc113_0776"
    INDEX 01 01:23:24
  TRACK 68 AUDIO
    TITLE "0:"
    INDEX 01 01:28:24
  TRACK 69 AUDIO
    TITLE "8:cjc113_0777"
    INDEX 01 01:28:69
  TRACK 70 AUDIO
    TITLE "0:"
    INDEX 01 01:30:07
  TRACK 71 AUDIO
    TITLE "9:cjc113_0778"
    INDEX 01 01:30:32
  TRACK 72 AUDIO
    TITLE "0:"
    INDEX 01 01:33:15
  TRACK 73 AUDIO
    TITLE "10:cjc113_0779"
    INDEX 01 01:33:34
  TRACK 74 AUDIO
    TITLE "0:"
    INDEX 01 01:36:00
